Source: Match.Point.2005.720p.BluRay.x264-SiNNERS

Subs: Brazilian, Bulgarian, Danish, Dutch, English, French, Greek, Hebrew, Indonesian, Italian, Persian, Portuguese, Romanian, Servian, Slovenian, Spanish, Swedish and Vietnamese.

Sample and Screens included.

General
Complete name                    : Match Point-720p MP4 AAC x264 BRRip 2005-CC.mp4
Format                           : MPEG-4
Format profile                   : Base Media
Codec ID                         : isom
File size                        : 2.03 GiB
Duration                         : 2h 3mn
Overall bit rate                 : 2 342 Kbps
Encoded date                     : UTC 2012-05-12 09:02:14

Video
ID                               : 1
Format                           : AVC
Format/Info                      : Advanced Video Codec
Format profile                   : High@L3.1
Format settings, CABAC           : Yes
Format settings, ReFrames        : 5 frames
Codec ID                         : avc1
Codec ID/Info                    : Advanced Video Coding
Duration                         : 2h 3mn
Bit rate mode                    : Variable
Bit rate                         : 2 160 Kbps
Nominal bit rate                 : 2 183 Kbps
Maximum bit rate                 : 26.7 Mbps
Width                            : 1 280 pixels
Height                           : 688 pixels
Display aspect ratio             : 1.860
Frame rate mode                  : Variable
Frame rate                       : 23.976 fps
Minimum frame rate               : 19.048 fps
Maximum frame rate               : 24.390 fps
Resolution                       : 24 bits
Colorimetry                      : 4:2:0
Scan type                        : Progressive
Bits/(Pixel*Frame)               : 0.102
Stream size                      : 1.87 GiB (92%)
Writing library                  : x264 core 112

Audio
ID                               : 2
Format                           : AAC
Format/Info                      : Advanced Audio Codec
Format version                   : Version 4
Format profile                   : LC
Format settings, SBR             : No
Codec ID                         : 40
Duration                         : 2h 3mn
Bit rate mode                    : Variable
Bit rate                         : 177 Kbps
Maximum bit rate                 : 222 Kbps
Channel(s)                       : 2 channels
Channel positions                : L R
Sampling rate                    : 48.0 KHz
Resolution                       : 16 bits
Stream size                      : 157 MiB (8%)
Language                         : English

Enjoy...

Requested by DreamExtractor.